<mxfile host="app.diagrams.net" agent="Mozilla/5.0 (Windows NT 10.0; Win64; x64; rv:140.0) Gecko/20100101 Firefox/140.0" version="27.1.6">
  <diagram id="vuMTW8YQfYrDOJvJzxi7" name="Page-1">
    <mxGraphModel dx="3848" dy="2367" grid="1" gridSize="10" guides="1" tooltips="1" connect="1" arrows="1" fold="1" page="1" pageScale="1" pageWidth="827" pageHeight="1169" math="0" shadow="0">
      <root>
        <mxCell id="0" />
        <mxCell id="1" parent="0" />
        <mxCell id="km7Ys9WgueS3rmO2dscL-8" value="" style="fontStyle=0;verticalAlign=top;align=center;spacingTop=-2;fillColor=none;rounded=0;whiteSpace=wrap;html=1;strokeColor=#919191;strokeWidth=2;dashed=1;container=1;collapsible=0;expand=0;recursiveResize=0;" vertex="1" parent="1">
          <mxGeometry x="-827" y="-110" width="1427" height="530" as="geometry" />
        </mxCell>
        <mxCell id="km7Ys9WgueS3rmO2dscL-14" value="" style="fontStyle=0;verticalAlign=top;align=center;spacingTop=-2;fillColor=none;rounded=0;whiteSpace=wrap;html=1;strokeColor=#919191;strokeWidth=2;dashed=1;container=1;collapsible=0;expand=0;recursiveResize=0;" vertex="1" parent="km7Ys9WgueS3rmO2dscL-8">
          <mxGeometry x="18.5" y="220" width="1390" height="290" as="geometry" />
        </mxCell>
        <mxCell id="km7Ys9WgueS3rmO2dscL-20" value="tikal-virutal-network" style="text;html=1;align=center;verticalAlign=middle;whiteSpace=wrap;rounded=0;" vertex="1" parent="km7Ys9WgueS3rmO2dscL-14">
          <mxGeometry x="80" y="14.91" width="120" height="30" as="geometry" />
        </mxCell>
        <mxCell id="km7Ys9WgueS3rmO2dscL-22" value="" style="fontStyle=0;verticalAlign=top;align=center;spacingTop=-2;fillColor=none;rounded=0;whiteSpace=wrap;html=1;strokeColor=#919191;strokeWidth=2;dashed=1;container=1;collapsible=0;expand=0;recursiveResize=0;" vertex="1" parent="km7Ys9WgueS3rmO2dscL-14">
          <mxGeometry x="20" y="70" width="210" height="190" as="geometry" />
        </mxCell>
        <mxCell id="km7Ys9WgueS3rmO2dscL-18" value="" style="image;aspect=fixed;html=1;points=[];align=center;fontSize=12;image=img/lib/azure2/networking/Subnet.svg;" vertex="1" parent="km7Ys9WgueS3rmO2dscL-22">
          <mxGeometry x="10" y="10" width="68" height="40.72" as="geometry" />
        </mxCell>
        <mxCell id="km7Ys9WgueS3rmO2dscL-23" value="application-gateway" style="text;html=1;align=center;verticalAlign=middle;whiteSpace=wrap;rounded=0;" vertex="1" parent="km7Ys9WgueS3rmO2dscL-22">
          <mxGeometry x="78" y="15.360000000000014" width="120" height="30" as="geometry" />
        </mxCell>
        <mxCell id="km7Ys9WgueS3rmO2dscL-24" value="Application Gateway" style="image;sketch=0;aspect=fixed;html=1;points=[];align=center;fontSize=12;image=img/lib/mscae/Application_Gateway.svg;" vertex="1" parent="km7Ys9WgueS3rmO2dscL-22">
          <mxGeometry x="65" y="70" width="80" height="80" as="geometry" />
        </mxCell>
        <mxCell id="km7Ys9WgueS3rmO2dscL-3" value="" style="verticalLabelPosition=bottom;html=1;verticalAlign=top;align=center;strokeColor=none;fillColor=#00BEF2;shape=mxgraph.azure.virtual_network;pointerEvents=1;" vertex="1" parent="km7Ys9WgueS3rmO2dscL-14">
          <mxGeometry x="10" y="9.909999999999968" width="70" height="40" as="geometry" />
        </mxCell>
        <mxCell id="km7Ys9WgueS3rmO2dscL-35" value="" style="fontStyle=0;verticalAlign=top;align=center;spacingTop=-2;fillColor=none;rounded=0;whiteSpace=wrap;html=1;strokeColor=#919191;strokeWidth=2;dashed=1;container=1;collapsible=0;expand=0;recursiveResize=0;" vertex="1" parent="km7Ys9WgueS3rmO2dscL-14">
          <mxGeometry x="377" y="70" width="210" height="190" as="geometry" />
        </mxCell>
        <mxCell id="km7Ys9WgueS3rmO2dscL-36" value="" style="image;aspect=fixed;html=1;points=[];align=center;fontSize=12;image=img/lib/azure2/networking/Subnet.svg;" vertex="1" parent="km7Ys9WgueS3rmO2dscL-35">
          <mxGeometry x="10" y="10" width="68" height="40.72" as="geometry" />
        </mxCell>
        <mxCell id="km7Ys9WgueS3rmO2dscL-37" value="identity-endpoint" style="text;html=1;align=center;verticalAlign=middle;whiteSpace=wrap;rounded=0;" vertex="1" parent="km7Ys9WgueS3rmO2dscL-35">
          <mxGeometry x="78" y="15.360000000000014" width="120" height="30" as="geometry" />
        </mxCell>
        <mxCell id="km7Ys9WgueS3rmO2dscL-39" value="Private Endpoint" style="image;aspect=fixed;html=1;points=[];align=center;fontSize=12;image=img/lib/azure2/other/Private_Endpoints.svg;" vertex="1" parent="km7Ys9WgueS3rmO2dscL-35">
          <mxGeometry x="68.2" y="75" width="73.6" height="70" as="geometry" />
        </mxCell>
        <mxCell id="km7Ys9WgueS3rmO2dscL-41" style="edgeStyle=orthogonalEdgeStyle;rounded=0;orthogonalLoop=1;jettySize=auto;html=1;" edge="1" parent="km7Ys9WgueS3rmO2dscL-14" source="km7Ys9WgueS3rmO2dscL-39" target="km7Ys9WgueS3rmO2dscL-24">
          <mxGeometry relative="1" as="geometry" />
        </mxCell>
        <mxCell id="km7Ys9WgueS3rmO2dscL-42" style="edgeStyle=orthogonalEdgeStyle;rounded=0;orthogonalLoop=1;jettySize=auto;html=1;entryX=0.011;entryY=0.505;entryDx=0;entryDy=0;entryPerimeter=0;" edge="1" parent="km7Ys9WgueS3rmO2dscL-14" source="km7Ys9WgueS3rmO2dscL-24" target="km7Ys9WgueS3rmO2dscL-39">
          <mxGeometry relative="1" as="geometry" />
        </mxCell>
        <mxCell id="km7Ys9WgueS3rmO2dscL-44" value="auth.tikalonline.com" style="edgeLabel;html=1;align=center;verticalAlign=middle;resizable=0;points=[];" vertex="1" connectable="0" parent="km7Ys9WgueS3rmO2dscL-42">
          <mxGeometry x="-0.0591" y="-1" relative="1" as="geometry">
            <mxPoint x="-1" y="9" as="offset" />
          </mxGeometry>
        </mxCell>
        <mxCell id="km7Ys9WgueS3rmO2dscL-53" value="" style="fontStyle=0;verticalAlign=top;align=center;spacingTop=-2;fillColor=none;rounded=0;whiteSpace=wrap;html=1;strokeColor=#919191;strokeWidth=2;dashed=1;container=1;collapsible=0;expand=0;recursiveResize=0;" vertex="1" parent="km7Ys9WgueS3rmO2dscL-14">
          <mxGeometry x="880" y="70" width="210" height="190" as="geometry" />
        </mxCell>
        <mxCell id="km7Ys9WgueS3rmO2dscL-54" value="" style="image;aspect=fixed;html=1;points=[];align=center;fontSize=12;image=img/lib/azure2/networking/Subnet.svg;" vertex="1" parent="km7Ys9WgueS3rmO2dscL-53">
          <mxGeometry x="10" y="10" width="68" height="40.72" as="geometry" />
        </mxCell>
        <mxCell id="km7Ys9WgueS3rmO2dscL-55" value="database" style="text;html=1;align=center;verticalAlign=middle;whiteSpace=wrap;rounded=0;" vertex="1" parent="km7Ys9WgueS3rmO2dscL-53">
          <mxGeometry x="78" y="15.36" width="72" height="30" as="geometry" />
        </mxCell>
        <mxCell id="km7Ys9WgueS3rmO2dscL-57" value="Database&lt;br&gt;(identity-db)" style="image;aspect=fixed;html=1;points=[];align=center;fontSize=12;image=img/lib/azure2/databases/Azure_Database_PostgreSQL_Server.svg;" vertex="1" parent="km7Ys9WgueS3rmO2dscL-53">
          <mxGeometry x="75" y="70" width="60" height="80" as="geometry" />
        </mxCell>
        <mxCell id="km7Ys9WgueS3rmO2dscL-46" value="" style="fontStyle=0;verticalAlign=top;align=center;spacingTop=-2;fillColor=none;rounded=0;whiteSpace=wrap;html=1;strokeColor=#919191;strokeWidth=2;dashed=1;container=1;collapsible=0;expand=0;recursiveResize=0;" vertex="1" parent="km7Ys9WgueS3rmO2dscL-14">
          <mxGeometry x="630" y="70" width="210" height="190" as="geometry" />
        </mxCell>
        <mxCell id="km7Ys9WgueS3rmO2dscL-47" value="" style="image;aspect=fixed;html=1;points=[];align=center;fontSize=12;image=img/lib/azure2/networking/Subnet.svg;" vertex="1" parent="km7Ys9WgueS3rmO2dscL-46">
          <mxGeometry x="10" y="10" width="68" height="40.72" as="geometry" />
        </mxCell>
        <mxCell id="km7Ys9WgueS3rmO2dscL-48" value="identity-api" style="text;html=1;align=center;verticalAlign=middle;whiteSpace=wrap;rounded=0;" vertex="1" parent="km7Ys9WgueS3rmO2dscL-46">
          <mxGeometry x="78" y="15.36" width="102" height="30" as="geometry" />
        </mxCell>
        <mxCell id="km7Ys9WgueS3rmO2dscL-50" value="App Service" style="image;aspect=fixed;html=1;points=[];align=center;fontSize=12;image=img/lib/azure2/containers/App_Services.svg;" vertex="1" parent="km7Ys9WgueS3rmO2dscL-46">
          <mxGeometry x="70" y="75" width="70" height="70" as="geometry" />
        </mxCell>
        <mxCell id="km7Ys9WgueS3rmO2dscL-51" style="edgeStyle=orthogonalEdgeStyle;rounded=0;orthogonalLoop=1;jettySize=auto;html=1;" edge="1" parent="km7Ys9WgueS3rmO2dscL-14" source="km7Ys9WgueS3rmO2dscL-39" target="km7Ys9WgueS3rmO2dscL-50">
          <mxGeometry relative="1" as="geometry" />
        </mxCell>
        <mxCell id="km7Ys9WgueS3rmO2dscL-52" style="edgeStyle=orthogonalEdgeStyle;rounded=0;orthogonalLoop=1;jettySize=auto;html=1;entryX=0.949;entryY=0.508;entryDx=0;entryDy=0;entryPerimeter=0;" edge="1" parent="km7Ys9WgueS3rmO2dscL-14" source="km7Ys9WgueS3rmO2dscL-50" target="km7Ys9WgueS3rmO2dscL-39">
          <mxGeometry relative="1" as="geometry" />
        </mxCell>
        <mxCell id="km7Ys9WgueS3rmO2dscL-59" style="edgeStyle=orthogonalEdgeStyle;rounded=0;orthogonalLoop=1;jettySize=auto;html=1;" edge="1" parent="km7Ys9WgueS3rmO2dscL-14" source="km7Ys9WgueS3rmO2dscL-57" target="km7Ys9WgueS3rmO2dscL-50">
          <mxGeometry relative="1" as="geometry" />
        </mxCell>
        <mxCell id="km7Ys9WgueS3rmO2dscL-60" style="edgeStyle=orthogonalEdgeStyle;rounded=0;orthogonalLoop=1;jettySize=auto;html=1;" edge="1" parent="km7Ys9WgueS3rmO2dscL-14" source="km7Ys9WgueS3rmO2dscL-50" target="km7Ys9WgueS3rmO2dscL-57">
          <mxGeometry relative="1" as="geometry" />
        </mxCell>
        <mxCell id="km7Ys9WgueS3rmO2dscL-106" value="" style="fontStyle=0;verticalAlign=top;align=center;spacingTop=-2;fillColor=none;rounded=0;whiteSpace=wrap;html=1;strokeColor=#919191;strokeWidth=2;dashed=1;container=1;collapsible=0;expand=0;recursiveResize=0;" vertex="1" parent="km7Ys9WgueS3rmO2dscL-14">
          <mxGeometry x="1158.5" y="70" width="210" height="190" as="geometry" />
        </mxCell>
        <mxCell id="km7Ys9WgueS3rmO2dscL-107" value="" style="image;aspect=fixed;html=1;points=[];align=center;fontSize=12;image=img/lib/azure2/networking/Subnet.svg;" vertex="1" parent="km7Ys9WgueS3rmO2dscL-106">
          <mxGeometry x="10" y="10" width="68" height="40.72" as="geometry" />
        </mxCell>
        <mxCell id="km7Ys9WgueS3rmO2dscL-108" value="vpn" style="text;html=1;align=center;verticalAlign=middle;whiteSpace=wrap;rounded=0;" vertex="1" parent="km7Ys9WgueS3rmO2dscL-106">
          <mxGeometry x="78" y="15.36" width="62" height="30" as="geometry" />
        </mxCell>
        <mxCell id="km7Ys9WgueS3rmO2dscL-110" value="Virtual Network Gateway" style="image;sketch=0;aspect=fixed;html=1;points=[];align=center;fontSize=12;image=img/lib/mscae/VPN_Gateway.svg;" vertex="1" parent="km7Ys9WgueS3rmO2dscL-106">
          <mxGeometry x="69" y="70" width="72" height="80" as="geometry" />
        </mxCell>
        <mxCell id="km7Ys9WgueS3rmO2dscL-9" value="" style="image;aspect=fixed;html=1;points=[];align=center;fontSize=12;image=img/lib/azure2/general/Resource_Groups.svg;" vertex="1" parent="km7Ys9WgueS3rmO2dscL-8">
          <mxGeometry x="10" y="10" width="42.5" height="40" as="geometry" />
        </mxCell>
        <mxCell id="km7Ys9WgueS3rmO2dscL-19" value="tikal-resources" style="text;html=1;align=center;verticalAlign=middle;whiteSpace=wrap;rounded=0;" vertex="1" parent="km7Ys9WgueS3rmO2dscL-8">
          <mxGeometry x="52.5" y="15" width="87.5" height="30" as="geometry" />
        </mxCell>
        <mxCell id="km7Ys9WgueS3rmO2dscL-61" value="&lt;div align=&quot;center&quot;&gt;&lt;span&gt;gateway-keyvault&lt;/span&gt;&lt;/div&gt;" style="image;aspect=fixed;html=1;points=[];align=center;fontSize=12;image=img/lib/azure2/security/Key_Vaults.svg;" vertex="1" parent="km7Ys9WgueS3rmO2dscL-8">
          <mxGeometry x="287" y="70" width="90" height="90" as="geometry" />
        </mxCell>
        <mxCell id="km7Ys9WgueS3rmO2dscL-73" style="edgeStyle=orthogonalEdgeStyle;rounded=0;orthogonalLoop=1;jettySize=auto;html=1;jumpStyle=none;curved=0;" edge="1" parent="km7Ys9WgueS3rmO2dscL-8" source="km7Ys9WgueS3rmO2dscL-24" target="km7Ys9WgueS3rmO2dscL-61">
          <mxGeometry relative="1" as="geometry">
            <Array as="points">
              <mxPoint x="145" y="350" />
              <mxPoint x="332" y="350" />
            </Array>
          </mxGeometry>
        </mxCell>
        <mxCell id="km7Ys9WgueS3rmO2dscL-67" value="&lt;font style=&quot;font-size: 11px;&quot;&gt;identity-keyvault&lt;/font&gt;" style="image;aspect=fixed;html=1;points=[];align=center;fontSize=12;image=img/lib/azure2/security/Key_Vaults.svg;" vertex="1" parent="km7Ys9WgueS3rmO2dscL-8">
          <mxGeometry x="837" y="70" width="90" height="90" as="geometry" />
        </mxCell>
        <mxCell id="km7Ys9WgueS3rmO2dscL-74" style="edgeStyle=orthogonalEdgeStyle;rounded=0;orthogonalLoop=1;jettySize=auto;html=1;" edge="1" parent="km7Ys9WgueS3rmO2dscL-8" source="km7Ys9WgueS3rmO2dscL-50" target="km7Ys9WgueS3rmO2dscL-67">
          <mxGeometry relative="1" as="geometry">
            <Array as="points">
              <mxPoint x="755" y="350" />
              <mxPoint x="882" y="350" />
            </Array>
          </mxGeometry>
        </mxCell>
        <mxCell id="km7Ys9WgueS3rmO2dscL-77" value="Container Registry" style="image;aspect=fixed;html=1;points=[];align=center;fontSize=12;image=img/lib/azure2/containers/Container_Registries.svg;" vertex="1" parent="km7Ys9WgueS3rmO2dscL-8">
          <mxGeometry x="1267" y="62" width="118.16" height="106" as="geometry" />
        </mxCell>
        <mxCell id="km7Ys9WgueS3rmO2dscL-79" value="Application Insights" style="image;aspect=fixed;html=1;points=[];align=center;fontSize=12;image=img/lib/azure2/devops/Application_Insights.svg;" vertex="1" parent="km7Ys9WgueS3rmO2dscL-8">
          <mxGeometry x="1157" y="68" width="69.84" height="100" as="geometry" />
        </mxCell>
        <mxCell id="km7Ys9WgueS3rmO2dscL-27" style="edgeStyle=orthogonalEdgeStyle;rounded=0;orthogonalLoop=1;jettySize=auto;html=1;" edge="1" parent="1" source="km7Ys9WgueS3rmO2dscL-25" target="km7Ys9WgueS3rmO2dscL-24">
          <mxGeometry relative="1" as="geometry" />
        </mxCell>
        <mxCell id="km7Ys9WgueS3rmO2dscL-25" value="Internet" style="image;aspect=fixed;perimeter=ellipsePerimeter;html=1;align=center;shadow=0;dashed=0;spacingTop=3;image=img/lib/active_directory/internet_cloud.svg;" vertex="1" parent="1">
          <mxGeometry x="-1130" y="220" width="222.22" height="140" as="geometry" />
        </mxCell>
        <mxCell id="km7Ys9WgueS3rmO2dscL-28" style="edgeStyle=orthogonalEdgeStyle;rounded=0;orthogonalLoop=1;jettySize=auto;html=1;" edge="1" parent="1" source="km7Ys9WgueS3rmO2dscL-24" target="km7Ys9WgueS3rmO2dscL-25">
          <mxGeometry relative="1" as="geometry" />
        </mxCell>
        <mxCell id="km7Ys9WgueS3rmO2dscL-43" value="tikalonline.com" style="edgeLabel;html=1;align=center;verticalAlign=middle;resizable=0;points=[];" vertex="1" connectable="0" parent="km7Ys9WgueS3rmO2dscL-28">
          <mxGeometry x="0.1666" relative="1" as="geometry">
            <mxPoint x="23" y="10" as="offset" />
          </mxGeometry>
        </mxCell>
        <mxCell id="km7Ys9WgueS3rmO2dscL-117" style="edgeStyle=orthogonalEdgeStyle;rounded=0;orthogonalLoop=1;jettySize=auto;html=1;" edge="1" parent="1" source="km7Ys9WgueS3rmO2dscL-116" target="km7Ys9WgueS3rmO2dscL-110">
          <mxGeometry relative="1" as="geometry" />
        </mxCell>
        <mxCell id="km7Ys9WgueS3rmO2dscL-116" value="Developer" style="sketch=0;pointerEvents=1;shadow=0;dashed=0;html=1;strokeColor=none;labelPosition=center;verticalLabelPosition=bottom;verticalAlign=top;outlineConnect=0;align=center;shape=mxgraph.office.users.user;fillColor=#2072B8;" vertex="1" parent="1">
          <mxGeometry x="680" y="245" width="80" height="90" as="geometry" />
        </mxCell>
        <mxCell id="km7Ys9WgueS3rmO2dscL-118" style="edgeStyle=orthogonalEdgeStyle;rounded=0;orthogonalLoop=1;jettySize=auto;html=1;" edge="1" parent="1" source="km7Ys9WgueS3rmO2dscL-110" target="km7Ys9WgueS3rmO2dscL-116">
          <mxGeometry relative="1" as="geometry" />
        </mxCell>
        <mxCell id="km7Ys9WgueS3rmO2dscL-119" value="AAD Auth" style="edgeLabel;html=1;align=center;verticalAlign=middle;resizable=0;points=[];" vertex="1" connectable="0" parent="km7Ys9WgueS3rmO2dscL-118">
          <mxGeometry x="-0.117" relative="1" as="geometry">
            <mxPoint x="7" y="10" as="offset" />
          </mxGeometry>
        </mxCell>
      </root>
    </mxGraphModel>
  </diagram>
</mxfile>
